<?xml version="1.0" encoding="UTF-8" standalone="no" ?>
<!DOCTYPE svg PUBLIC "-//W3C//DTD SVG 1.1//EN" "http://www.w3.org/Graphics/SVG/1.1/DTD/svg11.dtd">
<svg xmlns="http://www.w3.org/2000/svg" xmlns:xlink="http://www.w3.org/1999/xlink" version="1.1" width="1080" height="1080" viewBox="0 0 1080 1080" xml:space="preserve">
<desc>Created with Fabric.js 5.2.4</desc>
<defs>
</defs>
<g transform="matrix(1 0 0 1 540 540)" id="ffe7f037-4dda-49d5-934c-509925605e68"  >
<rect style="stroke: none; stroke-width: 1; stroke-dasharray: none; stroke-linecap: butt; stroke-dashoffset: 0; stroke-linejoin: miter; stroke-miterlimit: 4; fill: rgb(255,255,255); fill-rule: nonzero; opacity: 1; visibility: hidden;" vector-effect="non-scaling-stroke"  x="-540" y="-540" rx="0" ry="0" width="1080" height="1080" />
</g>
<g transform="matrix(1 0 0 1 540 540)" id="eb5827cd-f274-40ab-b1d0-d847adef3f37"  >
</g>
<g transform="matrix(2.56 0 0 2.56 547.89 543.3)"  >
<g style="" vector-effect="non-scaling-stroke"   >
		<g transform="matrix(1 0 0 1 -140.32 0)"  >
<path style="stroke: none; stroke-width: 1; stroke-dasharray: none; stroke-linecap: butt; stroke-dashoffset: 0; stroke-linejoin: miter; stroke-miterlimit: 4; fill: rgb(18,67,70); fill-rule: evenodd; opacity: 1;" vector-effect="non-scaling-stroke"  transform=" translate(-108.48, -237.5)" d="M 166.5 240.5 C 165.752 225.407 164.752 210.074 163.5 194.5 C 162.273 193.41 161.44 192.076 161 190.5 C 160.667 190.833 160.333 191.167 160 191.5 C 157.946 188.366 155.279 188.033 152 190.5 C 151.667 189.833 151.333 189.167 151 188.5 C 146.506 189.733 146.672 190.9 151.5 192 C 152.833 193.84 152.666 194.34 151 193.5 C 149.417 195.393 147.917 197.393 146.5 199.5 C 145.749 198.624 145.249 197.624 145 196.5 C 144.617 197.056 144.117 197.389 143.5 197.5 C 141.063 195.567 138.729 193.4 136.5 191 C 133.79 189.253 130.79 188.253 127.5 188 C 117.122 187.162 106.788 187.495 96.5 189 C 81.2246 197.264 75.2246 210.098 78.5 227.5 C 101.741 226.429 125.074 226.429 148.5 227.5 C 148.047 228.458 147.381 229.292 146.5 230 C 147.711 231.113 147.711 232.28 146.5 233.5 C 147.605 234.892 148.939 236.059 150.5 237 C 149.207 237.49 147.873 237.657 146.5 237.5 C 146.5 238.833 146.5 240.167 146.5 241.5 C 146.987 249.211 143.654 251.544 136.5 248.5 C 135.582 244.878 135.582 241.212 136.5 237.5 C 117.476 238.431 98.143 238.764 78.5 238.5 C 78.3334 254.837 78.5001 271.17 79 287.5 C 81.7639 295.257 87.2639 299.757 95.5 301 C 108.162 301.5 120.829 301.667 133.5 301.5 C 136.097 301.721 136.097 302.221 133.5 303 C 120.833 303.667 108.167 303.667 95.5 303 C 88.4199 301.831 83.0865 298.831 79.5 294 C 76.5424 293.771 74.0424 292.604 72 290.5 C 71.8374 292.387 72.6707 293.887 74.5 295 C 72.6419 297.024 70.9752 299.191 69.5 301.5 C 70.9152 304.29 69.9152 305.79 66.5 306 C 69.1911 312.031 73.8578 315.697 80.5 317 C 102.543 317.822 124.543 317.655 146.5 316.5 C 147.522 316.855 148.189 317.522 148.5 318.5 C 127.333 319.161 106.167 319.828 85 320.5 C 75.7765 319.277 68.6099 314.777 63.5 307 C 57.4991 305.664 53.3324 302.164 51 296.5 C 49.3838 281.902 49.0505 267.235 50 252.5 C 51.9017 246.512 55.735 242.345 61.5 240 C 60.8333 237.333 60.1667 234.667 59.5 232 C 60.3206 221.91 60.8206 211.744 61 201.5 C 63.7699 185.229 73.2699 175.896 89.5 173.5 C 93.1073 161.403 101.274 155.069 114 154.5 C 125.595 156.432 134.095 162.598 139.5 173 C 154.203 176.035 163.37 184.869 167 199.5 C 167.798 213.212 167.631 226.878 166.5 240.5 Z M 109.5 165.5 C 115.387 164.615 120.387 166.281 124.5 170.5 C 117.189 171.665 109.856 171.831 102.5 171 C 104.54 168.664 106.873 166.831 109.5 165.5 Z M 143.5 197.5 C 149.203 205.813 151.537 214.98 150.5 225 C 149.934 225.995 149.267 226.828 148.5 227.5 C 125.074 226.429 101.741 226.429 78.5 227.5 C 75.2246 210.098 81.2246 197.264 96.5 189 C 106.788 187.495 117.122 187.162 127.5 188 C 130.79 188.253 133.79 189.253 136.5 191 C 138.729 193.4 141.063 195.567 143.5 197.5 Z" stroke-linecap="round" />
</g>
		<g transform="matrix(1 0 0 1 -126.31 16)"  >
<path style="stroke: none; stroke-width: 1; stroke-dasharray: none; stroke-linecap: butt; stroke-dashoffset: 0; stroke-linejoin: miter; stroke-miterlimit: 4; fill: rgb(5,65,69); fill-rule: evenodd; opacity: 1;" vector-effect="non-scaling-stroke"  transform=" translate(-122.5, -253.5)" d="M 166.5 240.5 C 172.513 242.347 176.346 246.347 178 252.5 C 178.667 266.167 178.667 279.833 178 293.5 C 176.5 300.333 172.333 304.5 165.5 306 C 161.361 312.314 155.694 316.48 148.5 318.5 C 148.189 317.522 147.522 316.855 146.5 316.5 C 124.543 317.655 102.543 317.822 80.5 317 C 73.8578 315.697 69.1911 312.031 66.5 306 C 69.9152 305.79 70.9152 304.29 69.5 301.5 C 70.9752 299.191 72.6419 297.024 74.5 295 C 72.6707 293.887 71.8374 292.387 72 290.5 C 74.0424 292.604 76.5424 293.771 79.5 294 C 83.0865 298.831 88.4199 301.831 95.5 303 C 108.167 303.667 120.833 303.667 133.5 303 C 136.097 302.221 136.097 301.721 133.5 301.5 C 140.689 299.645 145.855 295.312 149 288.5 C 150.298 271.876 150.798 255.376 150.5 239 C 149.552 238.517 148.552 238.351 147.5 238.5 C 147.737 239.791 147.404 240.791 146.5 241.5 C 146.5 240.167 146.5 238.833 146.5 237.5 C 147.873 237.657 149.207 237.49 150.5 237 C 148.939 236.059 147.605 234.892 146.5 233.5 C 147.711 232.28 147.711 231.113 146.5 230 C 147.381 229.292 148.047 228.458 148.5 227.5 C 149.267 226.828 149.934 225.995 150.5 225 C 151.537 214.98 149.203 205.813 143.5 197.5 C 144.117 197.389 144.617 197.056 145 196.5 C 145.249 197.624 145.749 198.624 146.5 199.5 C 147.917 197.393 149.417 195.393 151 193.5 C 152.666 194.34 152.833 193.84 151.5 192 C 146.672 190.9 146.506 189.733 151 188.5 C 151.333 189.167 151.667 189.833 152 190.5 C 155.279 188.033 157.946 188.366 160 191.5 C 160.333 191.167 160.667 190.833 161 190.5 C 161.44 192.076 162.273 193.41 163.5 194.5 C 164.752 210.074 165.752 225.407 166.5 240.5 Z" stroke-linecap="round" />
</g>
		<g transform="matrix(1 0 0 1 95.72 -22.57)"  >
<path style="stroke: none; stroke-width: 1; stroke-dasharray: none; stroke-linecap: butt; stroke-dashoffset: 0; stroke-linejoin: miter; stroke-miterlimit: 4; fill: rgb(19,66,70); fill-rule: evenodd; opacity: 1;" vector-effect="non-scaling-stroke"  transform=" translate(-344.52, -214.93)" d="M 354.5 188.5 C 357.448 188.223 360.281 188.556 363 189.5 C 363.5 206.497 363.667 223.497 363.5 240.5 C 360.167 240.5 356.833 240.5 353.5 240.5 C 353.657 239.127 353.49 237.793 353 236.5 C 347.177 242.124 340.677 242.957 333.5 239 C 325.165 231.197 323.331 222.03 328 211.5 C 334.88 201.708 343.214 200.041 353 206.5 C 353.209 200.419 353.709 194.419 354.5 188.5 Z M 341.5 212.5 C 350.543 212.138 354.376 216.471 353 225.5 C 347.98 234.483 342.813 234.65 337.5 226 C 336.129 220.641 337.463 216.141 341.5 212.5 Z" stroke-linecap="round" />
</g>
		<g transform="matrix(1 0 0 1 174.22 -16.04)"  >
<path style="stroke: none; stroke-width: 1; stroke-dasharray: none; stroke-linecap: butt; stroke-dashoffset: 0; stroke-linejoin: miter; stroke-miterlimit: 4; fill: rgb(16,62,65); fill-rule: evenodd; opacity: 1;" vector-effect="non-scaling-stroke"  transform=" translate(-423.03, -221.46)" d="M 427.5 202.5 C 429.792 202.244 431.959 202.577 434 203.5 C 434.498 206.482 434.665 209.482 434.5 212.5 C 428.166 211.652 423.999 214.319 422 220.5 C 421.5 227.158 421.334 233.825 421.5 240.5 C 418.167 240.5 414.833 240.5 411.5 240.5 C 411.5 228.167 411.5 215.833 411.5 203.5 C 414.833 203.5 418.167 203.5 421.5 203.5 C 421.351 204.552 421.517 205.552 422 206.5 C 423.98 205.251 425.813 203.918 427.5 202.5 Z" stroke-linecap="round" />
</g>
		<g transform="matrix(1 0 0 1 53.72 -15.97)"  >
<path style="stroke: none; stroke-width: 1; stroke-dasharray: none; stroke-linecap: butt; stroke-dashoffset: 0; stroke-linejoin: miter; stroke-miterlimit: 4; fill: rgb(21,68,70); fill-rule: evenodd; opacity: 1;" vector-effect="non-scaling-stroke"  transform=" translate(-302.53, -221.53)" d="M 302.5 202.5 C 310.119 201.855 315.619 204.855 319 211.5 C 319.5 221.161 319.666 230.828 319.5 240.5 C 316.167 240.5 312.833 240.5 309.5 240.5 C 309.881 231.432 309.381 222.432 308 213.5 C 303.267 210.808 299.434 211.808 296.5 216.5 C 294.847 224.385 294.013 232.385 294 240.5 C 291.379 240.704 288.545 240.704 285.5 240.5 C 285.5 228.167 285.5 215.833 285.5 203.5 C 288.5 203.5 291.5 203.5 294.5 203.5 C 294.281 204.675 294.614 205.675 295.5 206.5 C 297.904 205.157 300.238 203.823 302.5 202.5 Z" stroke-linecap="round" />
</g>
		<g transform="matrix(1 0 0 1 -33.81 -15.4)"  >
<path style="stroke: none; stroke-width: 1; stroke-dasharray: none; stroke-linecap: butt; stroke-dashoffset: 0; stroke-linejoin: miter; stroke-miterlimit: 4; fill: rgb(17,64,67); fill-rule: evenodd; opacity: 1;" vector-effect="non-scaling-stroke"  transform=" translate(-215, -222.1)" d="M 188.5 203.5 C 191.572 203.183 194.572 203.516 197.5 204.5 C 199.639 210.92 201.973 217.253 204.5 223.5 C 207.118 217.382 209.285 211.048 211 204.5 C 213.401 203.398 215.901 203.231 218.5 204 C 221.668 211.195 224.168 218.695 226 226.5 C 228.333 219.167 230.667 211.833 233 204.5 C 236.057 203.549 239.223 203.216 242.5 203.5 C 239.032 215.904 235.365 228.237 231.5 240.5 C 227.671 240.927 224.004 240.927 220.5 240.5 C 218.981 234.427 217.147 228.427 215 222.5 C 213.333 228.167 211.667 233.833 210 239.5 C 206.27 240.46 202.437 240.793 198.5 240.5 C 195.698 228.412 192.031 216.745 187.5 205.5 C 187.863 204.817 188.196 204.15 188.5 203.5 Z" stroke-linecap="round" />
</g>
		<g transform="matrix(1 0 0 1 12.12 -15.49)"  >
<path style="stroke: none; stroke-width: 1; stroke-dasharray: none; stroke-linecap: butt; stroke-dashoffset: 0; stroke-linejoin: miter; stroke-miterlimit: 4; fill: rgb(18,65,68); fill-rule: evenodd; opacity: 1;" vector-effect="non-scaling-stroke"  transform=" translate(-260.93, -222.01)" d="M 254.5 202.5 C 259.179 202.334 263.845 202.501 268.5 203 C 274.455 205.964 277.622 210.797 278 217.5 C 278.667 225.167 278.667 232.833 278 240.5 C 275.301 240.299 272.468 240.632 269.5 241.5 C 268.029 240.619 267.196 239.286 267 237.5 C 262.521 241.243 257.354 242.409 251.5 241 C 244.547 238.033 242.047 232.867 244 225.5 C 246.36 221.403 249.86 218.903 254.5 218 C 258.871 217.371 263.204 217.537 267.5 218.5 C 266.902 212.037 263.568 209.871 257.5 212 C 256.257 213.154 255.257 214.488 254.5 216 C 251.183 216.498 247.85 216.665 244.5 216.5 C 245.144 209.864 248.477 205.197 254.5 202.5 Z M 258.5 224.5 C 261.545 224.508 264.545 224.841 267.5 225.5 C 266.788 232.307 263.122 234.64 256.5 232.5 C 253.685 228.946 254.352 226.28 258.5 224.5 Z" stroke-linecap="round" />
</g>
		<g transform="matrix(1 0 0 1 138.43 -15.73)"  >
<path style="stroke: none; stroke-width: 1; stroke-dasharray: none; stroke-linecap: butt; stroke-dashoffset: 0; stroke-linejoin: miter; stroke-miterlimit: 4; fill: rgb(18,64,67); fill-rule: evenodd; opacity: 1;" vector-effect="non-scaling-stroke"  transform=" translate(-387.24, -221.77)" d="M 381.5 202.5 C 397.749 200.428 405.749 207.428 405.5 223.5 C 397.193 224.498 388.86 224.831 380.5 224.5 C 380.703 229.206 383.203 231.873 388 232.5 C 392.623 229.922 397.623 228.255 403 227.5 C 403.833 228.333 404.667 229.167 405.5 230 C 400.524 239.005 392.857 242.672 382.5 241 C 373.044 236.916 368.544 229.75 369 219.5 C 370.361 211.656 374.528 205.99 381.5 202.5 Z M 386.5 210.5 C 390.874 211.002 393.541 213.336 394.5 217.5 C 390.167 217.5 385.833 217.5 381.5 217.5 C 381.649 214.026 383.316 211.693 386.5 210.5 Z" stroke-linecap="round" />
</g>
		<g transform="matrix(1 0 0 1 118.86 18.23)"  >
<path style="stroke: none; stroke-width: 1; stroke-dasharray: none; stroke-linecap: butt; stroke-dashoffset: 0; stroke-linejoin: miter; stroke-miterlimit: 4; fill: rgb(25,65,68); fill-rule: evenodd; opacity: 1;" vector-effect="non-scaling-stroke"  transform=" translate(-367.67, -255.73)" d="M 365.5 249.5 C 373.571 250.174 375.571 254.007 371.5 261 C 364.081 263.556 360.915 261.056 362 253.5 C 362.69 251.65 363.856 250.316 365.5 249.5 Z" stroke-linecap="round" />
</g>
		<g transform="matrix(1 0 0 1 88.62 40.5)"  >
<path style="stroke: none; stroke-width: 1; stroke-dasharray: none; stroke-linecap: butt; stroke-dashoffset: 0; stroke-linejoin: miter; stroke-miterlimit: 4; fill: rgb(19,66,69); fill-rule: evenodd; opacity: 1;" vector-effect="non-scaling-stroke"  transform=" translate(-337.43, -278)" d="M 346.5 251.5 C 349.777 251.216 352.943 251.549 356 252.5 C 356.667 269.5 356.667 286.5 356 303.5 C 352.943 304.451 349.777 304.784 346.5 304.5 C 346.657 303.127 346.49 301.793 346 300.5 C 339.529 305.209 332.696 305.709 325.5 302 C 318.449 294.362 316.616 285.529 320 275.5 C 326.689 264.832 335.355 262.832 346 269.5 C 346.499 263.509 346.666 257.509 346.5 251.5 Z M 336.5 274.5 C 342.365 275.533 345.698 279.033 346.5 285 C 344.975 295.097 339.975 297.597 331.5 292.5 C 329.169 287.627 329.002 282.96 331 278.5 C 332.5 276.531 334.333 275.198 336.5 274.5 Z" stroke-linecap="round" />
</g>
		<g transform="matrix(1 0 0 1 -134.91 33.97)"  >
<path style="stroke: none; stroke-width: 1; stroke-dasharray: none; stroke-linecap: butt; stroke-dashoffset: 0; stroke-linejoin: miter; stroke-miterlimit: 4; fill: rgb(15,64,67); fill-rule: evenodd; opacity: 1;" vector-effect="non-scaling-stroke"  transform=" translate(-113.9, -271.47)" d="M 110.5 248.5 C 123.069 247.771 130.069 253.604 131.5 266 C 128.643 277.383 122.643 286.883 113.5 294.5 C 107.619 288.414 102.452 281.748 98 274.5 C 93.583 261.286 97.7496 252.619 110.5 248.5 Z M 112.5 259.5 C 117.674 260.256 119.508 263.256 118 268.5 C 111.668 271.501 108.668 269.501 109 262.5 C 110.518 261.837 111.685 260.837 112.5 259.5 Z" stroke-linecap="round" />
</g>
		<g transform="matrix(1 0 0 1 118.66 48.5)"  >
<path style="stroke: none; stroke-width: 1; stroke-dasharray: none; stroke-linecap: butt; stroke-dashoffset: 0; stroke-linejoin: miter; stroke-miterlimit: 4; fill: rgb(28,73,76); fill-rule: evenodd; opacity: 1;" vector-effect="non-scaling-stroke"  transform=" translate(-367.47, -286)" d="M 372.5 302.5 C 369.72 303.078 367.053 303.745 364.5 304.5 C 363.883 304.389 363.383 304.056 363 303.5 C 362.5 291.505 362.333 279.505 362.5 267.5 C 365.833 267.5 369.167 267.5 372.5 267.5 C 372.5 279.167 372.5 290.833 372.5 302.5 Z" stroke-linecap="round" />
</g>
		<g transform="matrix(1 0 0 1 -35.94 40.46)"  >
<path style="stroke: none; stroke-width: 1; stroke-dasharray: none; stroke-linecap: butt; stroke-dashoffset: 0; stroke-linejoin: miter; stroke-miterlimit: 4; fill: rgb(24,68,71); fill-rule: evenodd; opacity: 1;" vector-effect="non-scaling-stroke"  transform=" translate(-212.87, -277.96)" d="M 194.5 251.5 C 197.777 251.216 200.943 251.549 204 252.5 C 204.171 257.864 204.671 263.198 205.5 268.5 C 213.906 263.79 221.239 265.123 227.5 272.5 C 233.598 283.403 232.265 293.236 223.5 302 C 217.215 305.454 211.048 305.287 205 301.5 C 204.626 302.416 204.126 303.25 203.5 304 C 200.446 304.821 197.446 304.655 194.5 303.5 C 194.471 286.191 194.471 268.858 194.5 251.5 Z M 209.5 275.5 C 214.772 274.549 218.272 276.549 220 281.5 C 221.583 287.15 220.083 291.65 215.5 295 C 206.584 295.059 203.084 290.559 205 281.5 C 205.804 278.854 207.304 276.854 209.5 275.5 Z" stroke-linecap="round" />
</g>
		<g transform="matrix(1 0 0 1 184.51 47.23)"  >
<path style="stroke: none; stroke-width: 1; stroke-dasharray: none; stroke-linecap: butt; stroke-dashoffset: 0; stroke-linejoin: miter; stroke-miterlimit: 4; fill: rgb(22,65,68); fill-rule: evenodd; opacity: 1;" vector-effect="non-scaling-stroke"  transform=" translate(-433.32, -284.73)" d="M 427.5 265.5 C 435.501 263.807 442.001 266.14 447 272.5 C 447.49 273.793 447.657 275.127 447.5 276.5 C 445.063 276.756 442.729 277.423 440.5 278.5 C 437.683 274.992 434.017 273.659 429.5 274.5 C 429.5 275.833 429.5 277.167 429.5 278.5 C 434.329 279.563 438.996 281.063 443.5 283 C 450.569 291.133 449.569 298.133 440.5 304 C 435.833 304.667 431.167 304.667 426.5 304 C 422.421 302.255 419.755 299.255 418.5 295 C 418.905 294.055 419.572 293.388 420.5 293 C 424.324 290.712 427.324 291.379 429.5 295 C 433.229 297.421 436.229 296.754 438.5 293 C 437.833 292.333 437.167 291.667 436.5 291 C 431.617 289.928 426.95 288.261 422.5 286 C 416.633 277.421 418.299 270.587 427.5 265.5 Z" stroke-linecap="round" />
</g>
		<g transform="matrix(1 0 0 1 45.73 40.55)"  >
<path style="stroke: none; stroke-width: 1; stroke-dasharray: none; stroke-linecap: butt; stroke-dashoffset: 0; stroke-linejoin: miter; stroke-miterlimit: 4; fill: rgb(18,65,68); fill-rule: evenodd; opacity: 1;" vector-effect="non-scaling-stroke"  transform=" translate(-294.54, -278.05)" d="M 303.5 251.5 C 306.833 251.5 310.167 251.5 313.5 251.5 C 313.667 268.837 313.5 286.17 313 303.5 C 309.943 304.451 306.777 304.784 303.5 304.5 C 303.657 303.127 303.49 301.793 303 300.5 C 296.529 305.209 289.696 305.709 282.5 302 C 275.055 293.881 273.555 284.714 278 274.5 C 284.711 264.703 293.045 263.036 303 269.5 C 303.499 263.509 303.666 257.509 303.5 251.5 Z M 293.5 274.5 C 299.598 275.6 302.931 279.266 303.5 285.5 C 302.604 290.729 299.604 294.062 294.5 295.5 C 289.001 294.167 286.334 290.667 286.5 285 C 286.324 279.699 288.658 276.199 293.5 274.5 Z" stroke-linecap="round" />
</g>
		<g transform="matrix(1 0 0 1 4.69 48.3)"  >
<path style="stroke: none; stroke-width: 1; stroke-dasharray: none; stroke-linecap: butt; stroke-dashoffset: 0; stroke-linejoin: miter; stroke-miterlimit: 4; fill: rgb(26,71,74); fill-rule: evenodd; opacity: 1;" vector-effect="non-scaling-stroke"  transform=" translate(-253.5, -285.8)" d="M 236.5 266.5 C 239.777 266.216 242.943 266.549 246 267.5 C 246.333 275.833 246.667 284.167 247 292.5 C 253.026 297.317 257.359 295.983 260 288.5 C 260.5 281.174 260.666 273.841 260.5 266.5 C 264.375 266.085 268.042 266.585 271.5 268 C 270.512 280.086 270.178 292.253 270.5 304.5 C 267.167 304.5 263.833 304.5 260.5 304.5 C 260.372 301.226 259.039 301.059 256.5 304 C 246.442 307.256 239.609 304.089 236 294.5 C 235.195 285.089 235.362 275.756 236.5 266.5 Z" stroke-linecap="round" />
</g>
		<g transform="matrix(1 0 0 1 147.56 47.74)"  >
<path style="stroke: none; stroke-width: 1; stroke-dasharray: none; stroke-linecap: butt; stroke-dashoffset: 0; stroke-linejoin: miter; stroke-miterlimit: 4; fill: rgb(22,66,69); fill-rule: evenodd; opacity: 1;" vector-effect="non-scaling-stroke"  transform=" translate(-396.37, -285.24)" d="M 391.5 265.5 C 407.833 264.5 415.5 272.167 414.5 288.5 C 406.167 288.5 397.833 288.5 389.5 288.5 C 390.587 294.719 394.254 296.885 400.5 295 C 404.215 291.69 408.548 290.69 413.5 292 C 413.957 292.414 414.291 292.914 414.5 293.5 C 409.07 303.541 400.736 307.041 389.5 304 C 379.884 298.589 376.384 290.422 379 279.5 C 380.954 272.72 385.12 268.053 391.5 265.5 Z M 403.5 280.5 C 398.637 280.819 393.97 280.486 389.5 279.5 C 392.795 274.001 397.128 273.167 402.5 277 C 403.337 278.011 403.67 279.178 403.5 280.5 Z" stroke-linecap="round" />
</g>
		<g transform="matrix(1 0 0 1 147.19 42.99)"  >
<path style="stroke: none; stroke-width: 1; stroke-dasharray: none; stroke-linecap: butt; stroke-dashoffset: 0; stroke-linejoin: miter; stroke-miterlimit: 4; fill: rgb(209,229,230); fill-rule: evenodd; opacity: 0.06;" vector-effect="non-scaling-stroke"  transform=" translate(-396, -280.49)" d="M 389.5 279.5 C 393.97 280.486 398.637 280.819 403.5 280.5 C 398.652 281.814 393.652 281.814 388.5 280.5 C 388.624 279.893 388.957 279.56 389.5 279.5 Z" stroke-linecap="round" />
</g>
		<g transform="matrix(1 0 0 1 119.69 66.09)"  >
<path style="stroke: none; stroke-width: 1; stroke-dasharray: none; stroke-linecap: butt; stroke-dashoffset: 0; stroke-linejoin: miter; stroke-miterlimit: 4; fill: rgb(202,223,223); fill-rule: evenodd; opacity: 0.035;" vector-effect="non-scaling-stroke"  transform=" translate(-368.5, -303.59)" d="M 372.5 302.5 C 370.365 304.369 367.698 305.036 364.5 304.5 C 367.053 303.745 369.72 303.078 372.5 302.5 Z" stroke-linecap="round" />
</g>
</g>
</g>
</svg>