<?xml version="1.0" encoding="UTF-8" standalone="no" ?>
<!DOCTYPE svg PUBLIC "-//W3C//DTD SVG 1.1//EN" "http://www.w3.org/Graphics/SVG/1.1/DTD/svg11.dtd">
<svg xmlns="http://www.w3.org/2000/svg" xmlns:xlink="http://www.w3.org/1999/xlink" version="1.1" width="1080" height="1080" viewBox="0 0 1080 1080" xml:space="preserve">
<desc>Created with Fabric.js 5.2.4</desc>
<defs>
</defs>
<g transform="matrix(1 0 0 1 540 540)" id="189c7109-5624-4427-a92a-b43260047642"  >
<rect style="stroke: none; stroke-width: 1; stroke-dasharray: none; stroke-linecap: butt; stroke-dashoffset: 0; stroke-linejoin: miter; stroke-miterlimit: 4; fill: rgb(255,255,255); fill-rule: nonzero; opacity: 1; visibility: hidden;" vector-effect="non-scaling-stroke"  x="-540" y="-540" rx="0" ry="0" width="1080" height="1080" />
</g>
<g transform="matrix(1 0 0 1 540 540)" id="657c66e7-24cf-449d-83eb-f87bf69bf25d"  >
</g>
<g transform="matrix(2.62 0 0 2.62 548.2 560.91)"  >
<g style="" vector-effect="non-scaling-stroke"   >
		<g transform="matrix(1 0 0 1 -149.99 0)"  >
<path style="stroke: none; stroke-width: 1; stroke-dasharray: none; stroke-linecap: butt; stroke-dashoffset: 0; stroke-linejoin: miter; stroke-miterlimit: 4; fill: rgb(10,63,68); fill-rule: evenodd; opacity: 1;" vector-effect="non-scaling-stroke"  transform=" translate(-101.43, -248.51)" d="M 99.5 157.5 C 132.248 160.792 148.248 178.959 147.5 212 C 142.223 230.712 132.89 247.212 119.5 261.5 C 108.792 271.176 98.1255 280.843 87.5 290.5 C 88.7786 292.146 90.4453 293.313 92.5 294 C 104.789 296.739 116.789 300.405 128.5 305 C 136.445 311.157 136.445 317.49 128.5 324 C 122.116 329.385 115.45 334.385 108.5 339 C 98.4834 339.832 88.4834 339.666 78.5 338.5 C 78.2907 337.914 77.9574 337.414 77.5 337 C 85.8333 330.833 94.1667 324.667 102.5 318.5 C 103.474 316.257 103.808 313.924 103.5 311.5 C 92.5227 308.35 81.5227 305.183 70.5 302 C 65.684 300.507 61.8507 297.674 59 293.5 C 58.0623 290.12 58.729 287.12 61 284.5 C 68.9447 277.537 77.1113 271.037 85.5 265 C 73.1734 249.014 63.1734 231.681 55.5 213 C 53.6517 181.353 68.3184 162.853 99.5 157.5 Z M 94.5 184.5 C 106.86 182.261 115.36 186.928 120 198.5 C 121.292 212.061 115.125 220.061 101.5 222.5 C 86.6719 218.89 80.6719 210.057 83.5 196 C 86.3601 191.308 90.0267 187.475 94.5 184.5 Z" stroke-linecap="round" />
</g>
		<g transform="matrix(1 0 0 1 108.52 -29.46)"  >
<path style="stroke: none; stroke-width: 1; stroke-dasharray: none; stroke-linecap: butt; stroke-dashoffset: 0; stroke-linejoin: miter; stroke-miterlimit: 4; fill: rgb(19,61,65); fill-rule: evenodd; opacity: 1;" vector-effect="non-scaling-stroke"  transform=" translate(-359.94, -219.05)" d="M 381.5 209.5 C 381.5 217.833 381.5 226.167 381.5 234.5 C 379.393 235.468 377.059 235.802 374.5 235.5 C 374.666 228.159 374.5 220.826 374 213.5 C 371.077 210.347 368.077 210.68 365 214.5 C 364.814 221.414 364.314 228.247 363.5 235 C 361.231 235.758 359.064 235.591 357 234.5 C 356.667 227.833 356.333 221.167 356 214.5 C 355.585 212.709 354.585 211.376 353 210.5 C 350.901 211.466 349.068 212.8 347.5 214.5 C 346.669 221.142 346.169 227.809 346 234.5 C 343.936 235.591 341.769 235.758 339.5 235 C 338.514 224.916 338.181 214.749 338.5 204.5 C 341.711 204.012 344.544 204.679 347 206.5 C 352.576 202.315 357.91 202.649 363 207.5 C 370.233 200.213 376.4 200.88 381.5 209.5 Z" stroke-linecap="round" />
</g>
		<g transform="matrix(1 0 0 1 181.58 -28.77)"  >
<path style="stroke: none; stroke-width: 1; stroke-dasharray: none; stroke-linecap: butt; stroke-dashoffset: 0; stroke-linejoin: miter; stroke-miterlimit: 4; fill: rgb(28,67,70); fill-rule: evenodd; opacity: 0.996;" vector-effect="non-scaling-stroke"  transform=" translate(-433, -219.74)" d="M 446.5 211.5 C 445.508 219.316 445.174 227.316 445.5 235.5 C 443.281 236.393 441.115 236.06 439 234.5 C 438.667 227.5 438.333 220.5 438 213.5 C 437.333 212.167 436.333 211.167 435 210.5 C 432.406 211.462 430.406 213.129 429 215.5 C 428.667 221.833 428.333 228.167 428 234.5 C 425.667 235.833 423.333 235.833 421 234.5 C 420.699 224.48 420.199 214.48 419.5 204.5 C 421.467 204.739 423.301 204.406 425 203.5 C 426.676 204.061 428.009 205.061 429 206.5 C 434.641 202.212 439.975 202.545 445 207.5 C 445.41 208.901 445.91 210.234 446.5 211.5 Z" stroke-linecap="round" />
</g>
		<g transform="matrix(1 0 0 1 58.37 -29.44)"  >
<path style="stroke: none; stroke-width: 1; stroke-dasharray: none; stroke-linecap: butt; stroke-dashoffset: 0; stroke-linejoin: miter; stroke-miterlimit: 4; fill: rgb(25,66,70); fill-rule: evenodd; opacity: 1;" vector-effect="non-scaling-stroke"  transform=" translate(-309.79, -219.07)" d="M 331.5 211.5 C 331.5 219.167 331.5 226.833 331.5 234.5 C 329.105 235.814 326.605 235.814 324 234.5 C 323.667 227.167 323.333 219.833 323 212.5 C 322 211.833 321 211.167 320 210.5 C 317.809 211.833 315.976 213.5 314.5 215.5 C 313.509 221.979 313.176 228.646 313.5 235.5 C 310.606 235.958 308.106 235.291 306 233.5 C 305.252 227.468 305.419 221.468 306.5 215.5 C 304.493 209.373 301.493 209.04 297.5 214.5 C 296.669 221.142 296.169 227.809 296 234.5 C 293.667 235.833 291.333 235.833 289 234.5 C 287.97 224.657 287.804 214.657 288.5 204.5 C 291.711 204.012 294.544 204.679 297 206.5 C 302.523 202.286 307.69 202.62 312.5 207.5 C 315.678 205.161 319.178 203.494 323 202.5 C 328.075 203.407 330.908 206.407 331.5 211.5 Z" stroke-linecap="round" />
</g>
		<g transform="matrix(1 0 0 1 63.58 -32.76)"  >
<path style="stroke: none; stroke-width: 1; stroke-dasharray: none; stroke-linecap: butt; stroke-dashoffset: 0; stroke-linejoin: miter; stroke-miterlimit: 4; fill: rgb(0,0,0); fill-rule: evenodd; opacity: 0.004;" vector-effect="non-scaling-stroke"  transform=" translate(-315, -215.75)" d="M 314.5 215.5 C 315.833 216.167 315.833 216.167 314.5 215.5 Z" stroke-linecap="round" />
</g>
		<g transform="matrix(1 0 0 1 149.01 -30)"  >
<path style="stroke: none; stroke-width: 1; stroke-dasharray: none; stroke-linecap: butt; stroke-dashoffset: 0; stroke-linejoin: miter; stroke-miterlimit: 4; fill: rgb(28,68,72); fill-rule: evenodd; opacity: 1;" vector-effect="non-scaling-stroke"  transform=" translate(-400.44, -218.51)" d="M 399.5 201.5 C 412.565 202.873 417.565 209.707 414.5 222 C 407.996 222.041 401.662 222.708 395.5 224 C 399.127 229.327 403.294 229.827 408 225.5 C 414.559 225.402 415.725 227.902 411.5 233 C 397.849 238.841 389.182 234.508 385.5 220 C 386.453 216.138 387.62 212.305 389 208.5 C 391.998 205.262 395.498 202.929 399.5 201.5 Z M 397.5 210.5 C 399.642 210.69 401.975 210.856 404.5 211 C 405.743 212.154 406.743 213.488 407.5 215 C 403.833 215.667 400.167 215.667 396.5 215 C 396.043 214.586 395.709 214.086 395.5 213.5 C 396.612 212.735 397.279 211.735 397.5 210.5 Z" stroke-linecap="round" />
</g>
		<g transform="matrix(1 0 0 1 81.08 -25.51)"  >
<path style="stroke: none; stroke-width: 1; stroke-dasharray: none; stroke-linecap: butt; stroke-dashoffset: 0; stroke-linejoin: miter; stroke-miterlimit: 4; fill: rgb(168,197,199); fill-rule: evenodd; opacity: 0.02;" vector-effect="non-scaling-stroke"  transform=" translate(-332.5, -223)" d="M 331.5 211.5 C 332.188 216.567 332.855 221.733 333.5 227 C 332.877 229.607 332.21 232.107 331.5 234.5 C 331.5 226.833 331.5 219.167 331.5 211.5 Z" stroke-linecap="round" />
</g>
		<g transform="matrix(1 0 0 1 131.08 -26.51)"  >
<path style="stroke: none; stroke-width: 1; stroke-dasharray: none; stroke-linecap: butt; stroke-dashoffset: 0; stroke-linejoin: miter; stroke-miterlimit: 4; fill: rgb(180,200,203); fill-rule: evenodd; opacity: 0.114;" vector-effect="non-scaling-stroke"  transform=" translate(-382.5, -222)" d="M 381.5 209.5 C 382.193 213.565 382.86 217.732 383.5 222 C 382.882 224.55 382.882 227.217 383.5 230 C 383.431 231.986 382.765 233.486 381.5 234.5 C 381.5 226.167 381.5 217.833 381.5 209.5 Z" stroke-linecap="round" />
</g>
		<g transform="matrix(1 0 0 1 195.02 -25.01)"  >
<path style="stroke: none; stroke-width: 1; stroke-dasharray: none; stroke-linecap: butt; stroke-dashoffset: 0; stroke-linejoin: miter; stroke-miterlimit: 4; fill: rgb(106,129,140); fill-rule: evenodd; opacity: 0.349;" vector-effect="non-scaling-stroke"  transform=" translate(-446.44, -223.5)" d="M 446.5 211.5 C 446.471 217.973 446.805 225.307 447.5 233.5 C 447.145 234.522 446.478 235.189 445.5 235.5 C 445.174 227.316 445.508 219.316 446.5 211.5 Z" stroke-linecap="round" />
</g>
		<g transform="matrix(1 0 0 1 -69.92 -29.01)"  >
<path style="stroke: none; stroke-width: 1; stroke-dasharray: none; stroke-linecap: butt; stroke-dashoffset: 0; stroke-linejoin: miter; stroke-miterlimit: 4; fill: rgb(20,63,67); fill-rule: evenodd; opacity: 1;" vector-effect="non-scaling-stroke"  transform=" translate(-181.5, -219.5)" d="M 190.5 203.5 C 193.077 204.69 193.91 206.69 193 209.5 C 189.322 215.522 185.155 221.189 180.5 226.5 C 184.796 227.328 189.129 227.828 193.5 228 C 194.833 230.333 194.833 232.667 193.5 235 C 185.254 235.815 177.088 235.648 169 234.5 C 168.333 232.5 168.333 230.5 169 228.5 C 173.027 223.306 176.86 217.973 180.5 212.5 C 177.232 211.513 173.898 211.18 170.5 211.5 C 170.216 209.123 170.216 206.956 170.5 205 C 177.346 204.828 184.013 204.328 190.5 203.5 Z" stroke-linecap="round" />
</g>
		<g transform="matrix(1 0 0 1 17.56 -29.31)"  >
<path style="stroke: none; stroke-width: 1; stroke-dasharray: none; stroke-linecap: butt; stroke-dashoffset: 0; stroke-linejoin: miter; stroke-miterlimit: 4; fill: rgb(23,64,68); fill-rule: evenodd; opacity: 1;" vector-effect="non-scaling-stroke"  transform=" translate(-268.98, -219.2)" d="M 264.5 202.5 C 274.72 200.824 280.72 204.991 282.5 215 C 281.792 221.721 281.459 228.388 281.5 235 C 278.653 235.944 276.153 235.444 274 233.5 C 267.779 237.764 262.112 237.097 257 231.5 C 253.774 224.733 255.608 219.899 262.5 217 C 266.284 216.182 269.95 215.182 273.5 214 C 273.167 213 272.833 212 272.5 211 C 268.587 210.113 264.92 210.613 261.5 212.5 C 260.558 212.392 259.725 212.059 259 211.5 C 258.535 210.069 257.701 208.903 256.5 208 C 259.07 205.913 261.737 204.08 264.5 202.5 Z M 268.5 221.5 C 270.167 221.5 271.833 221.5 273.5 221.5 C 274.021 225.922 272.021 228.255 267.5 228.5 C 266.098 228.135 265.098 227.301 264.5 226 C 265.344 223.993 266.677 222.493 268.5 221.5 Z" stroke-linecap="round" />
</g>
		<g transform="matrix(1 0 0 1 -10.48 -29.72)"  >
<path style="stroke: none; stroke-width: 1; stroke-dasharray: none; stroke-linecap: butt; stroke-dashoffset: 0; stroke-linejoin: miter; stroke-miterlimit: 4; fill: rgb(32,70,74); fill-rule: evenodd; opacity: 1;" vector-effect="non-scaling-stroke"  transform=" translate(-240.94, -218.79)" d="M 236.5 202.5 C 242.809 201.44 248.142 203.107 252.5 207.5 C 250.832 212.023 248.166 213.023 244.5 210.5 C 242.115 210.203 239.782 210.703 237.5 212 C 241.254 214.371 245.254 216.371 249.5 218 C 255.534 226.293 253.534 231.96 243.5 235 C 238.928 235.887 234.595 235.22 230.5 233 C 227.951 229.62 228.618 226.787 232.5 224.5 C 234.778 226.223 237.278 227.556 240 228.5 C 243.007 227.82 243.84 226.154 242.5 223.5 C 239.558 222.181 236.558 221.015 233.5 220 C 227.608 212.96 228.608 207.126 236.5 202.5 Z" stroke-linecap="round" />
</g>
		<g transform="matrix(1 0 0 1 -40.9 -28.64)"  >
<path style="stroke: none; stroke-width: 1; stroke-dasharray: none; stroke-linecap: butt; stroke-dashoffset: 0; stroke-linejoin: miter; stroke-miterlimit: 4; fill: rgb(30,67,71); fill-rule: evenodd; opacity: 1;" vector-effect="non-scaling-stroke"  transform=" translate(-210.53, -219.87)" d="M 198.5 203.5 C 201.119 203.232 203.619 203.565 206 204.5 C 206.333 211.833 206.667 219.167 207 226.5 C 209.979 227.514 212.646 226.848 215 224.5 C 215.333 217.833 215.667 211.167 216 204.5 C 218.381 203.565 220.881 203.232 223.5 203.5 C 223.5 214.167 223.5 224.833 223.5 235.5 C 220.306 235.73 217.306 235.064 214.5 233.5 C 208.715 237.853 203.548 237.187 199 231.5 C 197.252 222.152 197.085 212.818 198.5 203.5 Z" stroke-linecap="round" />
</g>
		<g transform="matrix(1 0 0 1 -21.83 3.89)"  >
<path style="stroke: none; stroke-width: 1; stroke-dasharray: none; stroke-linecap: butt; stroke-dashoffset: 0; stroke-linejoin: miter; stroke-miterlimit: 4; fill: rgb(37,71,75); fill-rule: evenodd; opacity: 1;" vector-effect="non-scaling-stroke"  transform=" translate(-229.59, -252.4)" d="M 226.5 247.5 C 230.654 247.152 233.32 248.985 234.5 253 C 232.296 257.772 229.13 258.605 225 255.5 C 224.288 252.562 224.788 249.896 226.5 247.5 Z" stroke-linecap="round" />
</g>
		<g transform="matrix(1 0 0 1 61.33 26.55)"  >
<path style="stroke: none; stroke-width: 1; stroke-dasharray: none; stroke-linecap: butt; stroke-dashoffset: 0; stroke-linejoin: miter; stroke-miterlimit: 4; fill: rgb(17,60,64); fill-rule: evenodd; opacity: 1;" vector-effect="non-scaling-stroke"  transform=" translate(-312.75, -275.06)" d="M 318.5 290.5 C 318.825 282.981 318.492 275.648 317.5 268.5 C 313.115 265.452 309.781 266.452 307.5 271.5 C 307.6 277.652 307.6 283.986 307.5 290.5 C 304.552 290.777 301.719 290.444 299 289.5 C 299.667 279.833 299.667 270.167 299 260.5 C 302.24 258.964 305.24 259.297 308 261.5 C 315.171 256.638 320.838 257.971 325 265.5 C 325.2 272.883 325.7 280.216 326.5 287.5 C 325.003 291.471 322.336 292.471 318.5 290.5 Z" stroke-linecap="round" />
</g>
		<g transform="matrix(1 0 0 1 -71.09 25.8)"  >
<path style="stroke: none; stroke-width: 1; stroke-dasharray: none; stroke-linecap: butt; stroke-dashoffset: 0; stroke-linejoin: miter; stroke-miterlimit: 4; fill: rgb(18,60,63); fill-rule: evenodd; opacity: 1;" vector-effect="non-scaling-stroke"  transform=" translate(-180.33, -274.31)" d="M 182.5 258.5 C 190.804 257.009 193.137 259.843 189.5 267 C 183.593 265.543 179.926 267.877 178.5 274 C 178.595 279.289 178.595 284.789 178.5 290.5 C 175.833 290.5 173.167 290.5 170.5 290.5 C 170.808 280.78 170.474 271.113 169.5 261.5 C 169.709 260.914 170.043 260.414 170.5 260 C 173.697 259.013 176.53 259.513 179 261.5 C 180.145 260.364 181.312 259.364 182.5 258.5 Z" stroke-linecap="round" />
</g>
		<g transform="matrix(1 0 0 1 66.12 30.99)"  >
<path style="stroke: none; stroke-width: 1; stroke-dasharray: none; stroke-linecap: butt; stroke-dashoffset: 0; stroke-linejoin: miter; stroke-miterlimit: 4; fill: rgb(104,136,169); fill-rule: evenodd; opacity: 0.262;" vector-effect="non-scaling-stroke"  transform=" translate(-317.54, -279.5)" d="M 317.5 268.5 C 318.492 275.648 318.825 282.981 318.5 290.5 C 316.967 288.366 316.3 285.866 316.5 283 C 316.493 277.994 316.826 273.16 317.5 268.5 Z" stroke-linecap="round" />
</g>
		<g transform="matrix(1 0 0 1 28.16 26.21)"  >
<path style="stroke: none; stroke-width: 1; stroke-dasharray: none; stroke-linecap: butt; stroke-dashoffset: 0; stroke-linejoin: miter; stroke-miterlimit: 4; fill: rgb(24,66,69); fill-rule: evenodd; opacity: 1;" vector-effect="non-scaling-stroke"  transform=" translate(-279.58, -274.72)" d="M 275.5 258.5 C 289.447 257.114 295.781 263.447 294.5 277.5 C 287.833 277.5 281.167 277.5 274.5 277.5 C 274.837 281.333 277.004 283.333 281 283.5 C 284.108 282.807 287.108 281.807 290 280.5 C 294.668 283.408 294.502 286.241 289.5 289 C 273.925 294.683 265.592 289.016 264.5 272 C 266.262 265.756 269.929 261.256 275.5 258.5 Z M 277.5 265.5 C 281.584 264.875 284.584 266.375 286.5 270 C 285.584 270.374 284.75 270.874 284 271.5 C 281.534 270.212 279.034 270.212 276.5 271.5 C 275.5 271.167 274.833 270.5 274.5 269.5 C 275.524 268.148 276.524 266.815 277.5 265.5 Z" stroke-linecap="round" />
</g>
		<g transform="matrix(1 0 0 1 -22.42 25.77)"  >
<path style="stroke: none; stroke-width: 1; stroke-dasharray: none; stroke-linecap: butt; stroke-dashoffset: 0; stroke-linejoin: miter; stroke-miterlimit: 4; fill: rgb(14,60,63); fill-rule: evenodd; opacity: 1;" vector-effect="non-scaling-stroke"  transform=" translate(-229, -274.28)" d="M 233.5 276.5 C 232.515 280.634 232.182 284.968 232.5 289.5 C 230.167 289.5 227.833 289.5 225.5 289.5 C 225.827 280.318 225.493 271.318 224.5 262.5 C 224.5 261.5 224.5 260.5 224.5 259.5 C 227.346 258.905 230.346 258.905 233.5 259.5 C 233.5 265.167 233.5 270.833 233.5 276.5 Z" stroke-linecap="round" />
</g>
		<g transform="matrix(1 0 0 1 -45.86 26.06)"  >
<path style="stroke: none; stroke-width: 1; stroke-dasharray: none; stroke-linecap: butt; stroke-dashoffset: 0; stroke-linejoin: miter; stroke-miterlimit: 4; fill: rgb(20,63,66); fill-rule: evenodd; opacity: 1;" vector-effect="non-scaling-stroke"  transform=" translate(-205.56, -274.57)" d="M 200.5 258.5 C 214.952 256.619 221.619 262.952 220.5 277.5 C 213.833 277.5 207.167 277.5 200.5 277.5 C 200.452 280.292 201.785 282.125 204.5 283 C 208.512 283.207 212.346 282.373 216 280.5 C 219.398 283.45 219.231 286.283 215.5 289 C 199.564 294.387 191.231 288.721 190.5 272 C 191.614 265.744 194.948 261.244 200.5 258.5 Z M 203.5 265.5 C 205.591 265.318 207.591 265.652 209.5 266.5 C 210.888 267.591 211.388 268.924 211 270.5 C 207.879 271.711 204.712 271.711 201.5 270.5 C 201.167 270.167 200.833 269.833 200.5 269.5 C 201.172 267.84 202.172 266.507 203.5 265.5 Z" stroke-linecap="round" />
</g>
		<g transform="matrix(1 0 0 1 -1.4 26.43)"  >
<path style="stroke: none; stroke-width: 1; stroke-dasharray: none; stroke-linecap: butt; stroke-dashoffset: 0; stroke-linejoin: miter; stroke-miterlimit: 4; fill: rgb(25,65,68); fill-rule: evenodd; opacity: 1;" vector-effect="non-scaling-stroke"  transform=" translate(-250.02, -274.94)" d="M 245.5 258.5 C 250.667 258.09 255.667 258.757 260.5 260.5 C 262.039 264.09 260.872 266.423 257 267.5 C 253.546 265.082 250.379 265.249 247.5 268 C 252.892 269.906 257.725 272.739 262 276.5 C 263.381 285.304 259.548 290.304 250.5 291.5 C 247.148 290.774 243.815 289.941 240.5 289 C 236.402 285.533 236.902 282.7 242 280.5 C 245.607 282.865 249.44 283.532 253.5 282.5 C 253.67 281.178 253.337 280.011 252.5 279 C 247.682 277.936 243.516 275.77 240 272.5 C 238.324 266.232 240.157 261.565 245.5 258.5 Z" stroke-linecap="round" />
</g>
		<g transform="matrix(1 0 0 1 -22.42 28.21)"  >
<path style="stroke: none; stroke-width: 1; stroke-dasharray: none; stroke-linecap: butt; stroke-dashoffset: 0; stroke-linejoin: miter; stroke-miterlimit: 4; fill: rgb(182,200,201); fill-rule: evenodd; opacity: 0.361;" vector-effect="non-scaling-stroke"  transform=" translate(-229, -276.72)" d="M 224.5 262.5 C 225.493 271.318 225.827 280.318 225.5 289.5 C 227.833 289.5 230.167 289.5 232.5 289.5 C 232.182 284.968 232.515 280.634 233.5 276.5 C 233.5 281.167 233.5 285.833 233.5 290.5 C 230.346 291.095 227.346 291.095 224.5 290.5 C 224.5 281.167 224.5 271.833 224.5 262.5 Z" stroke-linecap="round" />
</g>
</g>
</g>
</svg>